<svg id="callisto_logo" xmlns="http://www.w3.org/2000/svg" viewBox="0 0 512 133.36"><defs><style>.cls-1{fill:#a9b9bf;}.cls-2{fill:#d9d5d0;}</style></defs><title>logo</title><g id="_Group_" ><path class="cls-1" d="M9.23,303.93Q0,294,0,271q0-18.27,6.18-39.34A91,91,0,0,1,26,195.56q13.67-15,34.73-15.06,13,0,21.06,5.75t8,17.58q0,7.48-3,11.75t-9.22,4.27a12.09,12.09,0,0,1-9.93-4.53q3.14-1.56,5.57-6.27a20.83,20.83,0,0,0,2.44-9.74,11.39,11.39,0,0,0-2.52-7.66c-1.69-2-4.39-3-8.1-3q-9.22,0-17.58,12.62T34,233.08A142.11,142.11,0,0,0,28.9,270q0,13.23,4.53,20.19t16.36,7a40.52,40.52,0,0,0,19-4.53,44,44,0,0,0,15-12.88l4,1.74a46.07,46.07,0,0,1-12.88,18.28,56.66,56.66,0,0,1-18.28,10.7,56,56,0,0,1-18.45,3.4Q18.45,313.86,9.23,303.93Z" transform="translate(0 -180.5)"/><path class="cls-1" d="M87.57,305.33Q81,298.54,81,284.09A79.61,79.61,0,0,1,86.09,257a62.33,62.33,0,0,1,15.32-24,33.76,33.76,0,0,1,24.28-9.83q7.14,0,10.62,2.43A7.54,7.54,0,0,1,139.8,232v1.21l1.91-9.22h25.07l-12.53,59.19a21.3,21.3,0,0,0-.7,5.57q0,7.48,7.14,7.49,4.88,0,8.44-4.53a34.1,34.1,0,0,0,5.66-11.84h7.31q-6.43,18.79-15.93,25.5t-19.06,6.71q-7.32,0-11.75-4.09t-5.31-11.93a48.69,48.69,0,0,1-11.23,11.58,24.55,24.55,0,0,1-14.71,4.44A22.16,22.16,0,0,1,87.57,305.33ZM124,291.14a21.48,21.48,0,0,0,5.83-11.23l8.36-39.34a7.06,7.06,0,0,0-1.74-4.44q-1.74-2.17-5.4-2.18-7,0-12.53,8.1a63.87,63.87,0,0,0-8.71,19.49,77.15,77.15,0,0,0-3.13,20.11q0,8.72,2.52,11.14a8.55,8.55,0,0,0,6.18,2.44Q119.77,295.23,124,291.14Z" transform="translate(0 -180.5)"/><path class="cls-1" d="M178.53,306.9q-5.15-5.23-5.14-15.67a60.37,60.37,0,0,1,1.4-11.32l18.62-87.22,25.77-3.48-20,94a21.3,21.3,0,0,0-.7,5.57c0,2.32.55,4,1.66,5s2.93,1.48,5.48,1.48q5.06,0,9.4-4.27a24.37,24.37,0,0,0,6.27-11h7.31q-6.45,18.79-16.54,25.5t-20,6.71Q183.66,312.12,178.53,306.9Z" transform="translate(0 -180.5)"/><path class="cls-2" d="M225,306.9q-5.13-5.23-5.13-15.67a60.23,60.23,0,0,1,1.39-11.32l18.63-87.22,25.76-3.48-20,94a21.74,21.74,0,0,0-.69,5.57c0,2.32.54,4,1.65,5s2.93,1.48,5.48,1.48q5.05,0,9.4-4.27a24.37,24.37,0,0,0,6.27-11h7.31q-6.44,18.79-16.54,25.5t-20,6.71Q230.15,312.12,225,306.9Z" transform="translate(0 -180.5)"/><path class="cls-2" d="M271.49,306.9q-5.13-5.23-5.13-15.67a60.23,60.23,0,0,1,1.39-11.32L279.59,224h25.07l-12.54,59.19a21.74,21.74,0,0,0-.69,5.57c0,2.32.55,4,1.65,5s2.93,1.48,5.48,1.48q5.06,0,9.4-4.27a24.37,24.37,0,0,0,6.27-11h7.31q-6.44,18.79-16.53,25.5t-20,6.71Q276.63,312.12,271.49,306.9Zm15.58-96.28a13.27,13.27,0,0,1-4-9.75,13.53,13.53,0,0,1,4-9.83,13.12,13.12,0,0,1,9.75-4.09,14,14,0,0,1,13.93,13.92,13.16,13.16,0,0,1-4.09,9.75,13.57,13.57,0,0,1-9.84,4A13.27,13.27,0,0,1,287.07,210.62Z" transform="translate(0 -180.5)"/><path class="cls-2" d="M320,308.9a21.08,21.08,0,0,1-8.53-8.36,22.12,22.12,0,0,1-2.79-10.71,18.33,18.33,0,0,1,2.7-10,16.56,16.56,0,0,1,6.53-6.18A223.57,223.57,0,0,0,329.73,249q5-12.45,9.57-26.9l25.77-3.48q.87,22.29,3,48.22.87,10.45.87,15.15a26.51,26.51,0,0,1-.7,6.62,72.33,72.33,0,0,0,12.54-8.71h7.31a101.78,101.78,0,0,1-26.64,21.76A29.93,29.93,0,0,1,349,309.59a45.88,45.88,0,0,1-14.88,2.53A28.43,28.43,0,0,1,320,308.9Zm19.32-14.37q4.35-3.82,4.35-12.36a140.23,140.23,0,0,0-1-14.62q-1.74-19.85-2.27-26.64-4.17,13.76-14.1,32.91,4,2.08,4,6.09a9,9,0,0,1-2.18,5.92,6.84,6.84,0,0,1-5.48,2.61q-3.66,0-4.7-2.26c0,4.18.84,7.25,2.52,9.23s4.38,2.95,8.1,2.95A15.71,15.71,0,0,0,339.3,294.53Z" transform="translate(0 -180.5)"/><path class="cls-2" d="M384.48,306.9q-5.14-5.23-5.14-15.67a61.08,61.08,0,0,1,1.39-11.32L391.18,231h-5.75l1.4-7h5.74l5.22-24,25.77-3.48L417.64,224h10.45l-1.39,7H416.25l-11.14,52.23a21.3,21.3,0,0,0-.7,5.57c0,2.32.55,4,1.65,5s2.93,1.48,5.49,1.48q5,0,9.4-4.27a24.37,24.37,0,0,0,6.27-11h7.31q-6.45,18.79-16.54,25.5t-20,6.71Q389.61,312.12,384.48,306.9Z" transform="translate(0 -180.5)"/><path class="cls-2" d="M432.26,305.15q-7.49-6.61-7.48-20.89a85.47,85.47,0,0,1,4.7-26.37A61.49,61.49,0,0,1,444.8,233q10.62-10.53,27.16-10.53,20.54,0,22.11,23.5a12.71,12.71,0,0,0,6.79-4.26,54.82,54.82,0,0,0,5.57-7.75H512a125.7,125.7,0,0,1-8.36,14.71,27.93,27.93,0,0,1-9.57,8.62Q493,273.65,487.36,286t-14.71,19.07a32.83,32.83,0,0,1-20,6.7Q439.75,311.77,432.26,305.15Zm39.35-19.5q5.56-10.44,7.66-25.76c-2.79-1-4.18-3.66-4.18-7.83q0-6.8,4.88-9.06-.36-5.56-1.83-7.74a5.39,5.39,0,0,0-4.79-2.18q-5.75,0-11,8.27a74.15,74.15,0,0,0-8.44,20A79.27,79.27,0,0,0,450.72,282q0,8.36,1.91,11.23t7,2.87Q466,296.1,471.61,285.65Z" transform="translate(0 -180.5)"/></g></svg>